<mxfile host="app.diagrams.net" modified="2024-03-13T18:54:08.841Z" agent="Mozilla/5.0 (Macintosh; Intel Mac OS X 10_15_7) AppleWebKit/537.36 (KHTML, like Gecko) Chrome/122.0.0.0 Safari/537.36" etag="jvqc8Xa4m6pCb3BY5Q3F" version="23.1.7" type="github" pages="3">
  <diagram name="Page-1" id="ndZINGRnPVI3fZeNtN0m">
    <mxGraphModel dx="741" dy="420" grid="1" gridSize="10" guides="1" tooltips="1" connect="1" arrows="1" fold="1" page="1" pageScale="1" pageWidth="827" pageHeight="1169" math="0" shadow="0">
      <root>
        <mxCell id="0" />
        <mxCell id="1" parent="0" />
        <mxCell id="jD6W0hsCGpTvZv-8-NtV-2" value="" style="rounded=0;whiteSpace=wrap;html=1;" parent="1" vertex="1">
          <mxGeometry x="40" y="40" width="280" height="440" as="geometry" />
        </mxCell>
        <mxCell id="jD6W0hsCGpTvZv-8-NtV-6" value="" style="rounded=1;whiteSpace=wrap;html=1;arcSize=4;" parent="1" vertex="1">
          <mxGeometry x="70" y="60" width="225" height="310" as="geometry" />
        </mxCell>
        <mxCell id="jD6W0hsCGpTvZv-8-NtV-7" value="10" style="ellipse;whiteSpace=wrap;html=1;aspect=fixed;" parent="1" vertex="1">
          <mxGeometry x="90" y="80" width="30" height="30" as="geometry" />
        </mxCell>
        <mxCell id="jD6W0hsCGpTvZv-8-NtV-8" value="07" style="ellipse;whiteSpace=wrap;html=1;aspect=fixed;" parent="1" vertex="1">
          <mxGeometry x="90" y="170" width="30" height="30" as="geometry" />
        </mxCell>
        <mxCell id="jD6W0hsCGpTvZv-8-NtV-9" value="02/10" style="ellipse;whiteSpace=wrap;html=1;aspect=fixed;" parent="1" vertex="1">
          <mxGeometry x="90" y="260" width="30" height="30" as="geometry" />
        </mxCell>
        <mxCell id="jD6W0hsCGpTvZv-8-NtV-11" value="" style="endArrow=none;html=1;rounded=0;exitX=0.5;exitY=0;exitDx=0;exitDy=0;" parent="1" source="jD6W0hsCGpTvZv-8-NtV-9" target="jD6W0hsCGpTvZv-8-NtV-8" edge="1">
          <mxGeometry width="50" height="50" relative="1" as="geometry">
            <mxPoint x="160" y="230" as="sourcePoint" />
            <mxPoint x="210" y="180" as="targetPoint" />
          </mxGeometry>
        </mxCell>
        <mxCell id="jD6W0hsCGpTvZv-8-NtV-13" value="" style="endArrow=none;html=1;rounded=0;entryX=0.5;entryY=1;entryDx=0;entryDy=0;exitX=0.5;exitY=0;exitDx=0;exitDy=0;" parent="1" source="jD6W0hsCGpTvZv-8-NtV-8" target="jD6W0hsCGpTvZv-8-NtV-7" edge="1">
          <mxGeometry width="50" height="50" relative="1" as="geometry">
            <mxPoint x="160" y="230" as="sourcePoint" />
            <mxPoint x="210" y="180" as="targetPoint" />
          </mxGeometry>
        </mxCell>
        <mxCell id="jD6W0hsCGpTvZv-8-NtV-15" value="" style="rounded=1;whiteSpace=wrap;html=1;" parent="1" vertex="1">
          <mxGeometry x="140" y="110" width="120" height="60" as="geometry" />
        </mxCell>
        <mxCell id="jD6W0hsCGpTvZv-8-NtV-16" value="" style="rounded=1;whiteSpace=wrap;html=1;" parent="1" vertex="1">
          <mxGeometry x="140" y="210" width="120" height="40" as="geometry" />
        </mxCell>
        <mxCell id="jD6W0hsCGpTvZv-8-NtV-18" value="&lt;h1&gt;Heading&lt;/h1&gt;&lt;p&gt;Lorem ipsum dolor sit amet, consectetur adipisicing elit, sed do eiusmod tempor incididunt ut labore et dolore magna aliqua.&lt;/p&gt;" style="text;html=1;spacing=5;spacingTop=-20;whiteSpace=wrap;overflow=hidden;rounded=0;" parent="1" vertex="1">
          <mxGeometry x="140" y="70" width="120" height="100" as="geometry" />
        </mxCell>
        <mxCell id="jD6W0hsCGpTvZv-8-NtV-19" value="&lt;h1&gt;Heading&lt;/h1&gt;&lt;p&gt;Lorem ipsum dolor sit amet, consectetur adipisicing elit, sed do eiusmod tempor incididunt ut labore et dolore magna aliqua.&lt;/p&gt;" style="text;html=1;spacing=5;spacingTop=-20;whiteSpace=wrap;overflow=hidden;rounded=0;" parent="1" vertex="1">
          <mxGeometry x="140" y="170" width="140" height="80" as="geometry" />
        </mxCell>
        <mxCell id="jD6W0hsCGpTvZv-8-NtV-20" value="&lt;h1&gt;Heading&lt;/h1&gt;" style="text;html=1;spacing=5;spacingTop=-20;whiteSpace=wrap;overflow=hidden;rounded=0;" parent="1" vertex="1">
          <mxGeometry x="135" y="255" width="130" height="40" as="geometry" />
        </mxCell>
        <mxCell id="jD6W0hsCGpTvZv-8-NtV-21" value="download env" style="rounded=1;whiteSpace=wrap;html=1;" parent="1" vertex="1">
          <mxGeometry x="140" y="300" width="100" height="30" as="geometry" />
        </mxCell>
        <mxCell id="jD6W0hsCGpTvZv-8-NtV-22" value="" style="verticalLabelPosition=bottom;verticalAlign=top;html=1;shape=mxgraph.basic.tick" parent="1" vertex="1">
          <mxGeometry x="140" y="310" width="10" height="10" as="geometry" />
        </mxCell>
        <mxCell id="jD6W0hsCGpTvZv-8-NtV-23" value="new" style="rounded=1;whiteSpace=wrap;html=1;" parent="1" vertex="1">
          <mxGeometry x="255" y="85" width="40" height="20" as="geometry" />
        </mxCell>
        <mxCell id="jD6W0hsCGpTvZv-8-NtV-24" value="copy" style="rounded=1;whiteSpace=wrap;html=1;" parent="1" vertex="1">
          <mxGeometry x="220" y="110" width="40" height="10" as="geometry" />
        </mxCell>
        <mxCell id="jD6W0hsCGpTvZv-8-NtV-29" value="Enter Message" style="rounded=1;whiteSpace=wrap;html=1;" parent="1" vertex="1">
          <mxGeometry x="70" y="430" width="160" height="30" as="geometry" />
        </mxCell>
        <mxCell id="jD6W0hsCGpTvZv-8-NtV-30" value="SEND" style="rounded=1;whiteSpace=wrap;html=1;" parent="1" vertex="1">
          <mxGeometry x="230" y="430" width="60" height="30" as="geometry" />
        </mxCell>
      </root>
    </mxGraphModel>
  </diagram>
  <diagram id="Rv5zPDv9jOEFHAz19CIN" name="Page-2">
    <mxGraphModel dx="1274" dy="1248" grid="0" gridSize="10" guides="1" tooltips="1" connect="1" arrows="1" fold="1" page="0" pageScale="1" pageWidth="827" pageHeight="1169" math="0" shadow="0">
      <root>
        <mxCell id="0" />
        <mxCell id="1" parent="0" />
        <mxCell id="6uvvvd_ewhgOaUgHB6CT-18" style="edgeStyle=none;curved=1;rounded=0;orthogonalLoop=1;jettySize=auto;html=1;entryX=1;entryY=0;entryDx=0;entryDy=0;fontSize=12;startSize=8;endSize=8;" edge="1" parent="1" source="6uvvvd_ewhgOaUgHB6CT-1" target="6uvvvd_ewhgOaUgHB6CT-15">
          <mxGeometry relative="1" as="geometry" />
        </mxCell>
        <mxCell id="6uvvvd_ewhgOaUgHB6CT-1" value="Scrapper" style="whiteSpace=wrap;html=1;" vertex="1" parent="1">
          <mxGeometry x="-23" y="-357" width="120" height="60" as="geometry" />
        </mxCell>
        <mxCell id="6uvvvd_ewhgOaUgHB6CT-2" value="sorter" style="whiteSpace=wrap;html=1;" vertex="1" parent="1">
          <mxGeometry x="126" y="-358" width="120" height="60" as="geometry" />
        </mxCell>
        <mxCell id="6uvvvd_ewhgOaUgHB6CT-4" value="config" style="whiteSpace=wrap;html=1;" vertex="1" parent="1">
          <mxGeometry x="274" y="-358" width="120" height="60" as="geometry" />
        </mxCell>
        <mxCell id="6uvvvd_ewhgOaUgHB6CT-5" value="" style="whiteSpace=wrap;html=1;" vertex="1" parent="1">
          <mxGeometry x="-160" y="-405" width="53" height="60" as="geometry" />
        </mxCell>
        <mxCell id="6uvvvd_ewhgOaUgHB6CT-6" value="" style="whiteSpace=wrap;html=1;" vertex="1" parent="1">
          <mxGeometry x="-160" y="-317" width="51" height="62" as="geometry" />
        </mxCell>
        <mxCell id="6uvvvd_ewhgOaUgHB6CT-7" value="" style="whiteSpace=wrap;html=1;" vertex="1" parent="1">
          <mxGeometry x="-150" y="-307" width="51" height="62" as="geometry" />
        </mxCell>
        <mxCell id="6uvvvd_ewhgOaUgHB6CT-8" value="" style="whiteSpace=wrap;html=1;" vertex="1" parent="1">
          <mxGeometry x="-140" y="-297" width="51" height="62" as="geometry" />
        </mxCell>
        <mxCell id="6uvvvd_ewhgOaUgHB6CT-9" value="" style="whiteSpace=wrap;html=1;" vertex="1" parent="1">
          <mxGeometry x="-130" y="-287" width="51" height="62" as="geometry" />
        </mxCell>
        <mxCell id="6uvvvd_ewhgOaUgHB6CT-16" value="" style="edgeStyle=none;curved=1;rounded=0;orthogonalLoop=1;jettySize=auto;html=1;fontSize=12;startSize=8;endSize=8;" edge="1" parent="1" source="6uvvvd_ewhgOaUgHB6CT-10" target="6uvvvd_ewhgOaUgHB6CT-15">
          <mxGeometry relative="1" as="geometry" />
        </mxCell>
        <mxCell id="6uvvvd_ewhgOaUgHB6CT-10" value="" style="whiteSpace=wrap;html=1;" vertex="1" parent="1">
          <mxGeometry x="-120" y="-277" width="51" height="62" as="geometry" />
        </mxCell>
        <mxCell id="6uvvvd_ewhgOaUgHB6CT-11" value="" style="whiteSpace=wrap;html=1;" vertex="1" parent="1">
          <mxGeometry x="-150" y="-395" width="53" height="60" as="geometry" />
        </mxCell>
        <mxCell id="6uvvvd_ewhgOaUgHB6CT-12" value="" style="whiteSpace=wrap;html=1;" vertex="1" parent="1">
          <mxGeometry x="-140" y="-385" width="53" height="60" as="geometry" />
        </mxCell>
        <mxCell id="6uvvvd_ewhgOaUgHB6CT-13" value="" style="whiteSpace=wrap;html=1;" vertex="1" parent="1">
          <mxGeometry x="-130" y="-375" width="53" height="60" as="geometry" />
        </mxCell>
        <mxCell id="6uvvvd_ewhgOaUgHB6CT-17" style="edgeStyle=none;curved=1;rounded=0;orthogonalLoop=1;jettySize=auto;html=1;exitX=1;exitY=0.5;exitDx=0;exitDy=0;entryX=0.5;entryY=0;entryDx=0;entryDy=0;fontSize=12;startSize=8;endSize=8;" edge="1" parent="1" source="6uvvvd_ewhgOaUgHB6CT-14" target="6uvvvd_ewhgOaUgHB6CT-15">
          <mxGeometry relative="1" as="geometry" />
        </mxCell>
        <mxCell id="6uvvvd_ewhgOaUgHB6CT-14" value="" style="whiteSpace=wrap;html=1;" vertex="1" parent="1">
          <mxGeometry x="-120" y="-365" width="53" height="60" as="geometry" />
        </mxCell>
        <mxCell id="6uvvvd_ewhgOaUgHB6CT-15" value="" style="ellipse;whiteSpace=wrap;html=1;" vertex="1" parent="1">
          <mxGeometry x="-54" y="-187" width="80" height="80" as="geometry" />
        </mxCell>
        <mxCell id="6uvvvd_ewhgOaUgHB6CT-20" value="Discord G1" style="whiteSpace=wrap;html=1;" vertex="1" parent="1">
          <mxGeometry x="219" y="-218" width="120" height="60" as="geometry" />
        </mxCell>
        <mxCell id="6uvvvd_ewhgOaUgHB6CT-21" value="Discord G1" style="whiteSpace=wrap;html=1;" vertex="1" parent="1">
          <mxGeometry x="229" y="-208" width="120" height="60" as="geometry" />
        </mxCell>
        <mxCell id="6uvvvd_ewhgOaUgHB6CT-22" value="Discord G1" style="whiteSpace=wrap;html=1;" vertex="1" parent="1">
          <mxGeometry x="239" y="-198" width="120" height="60" as="geometry" />
        </mxCell>
        <mxCell id="6uvvvd_ewhgOaUgHB6CT-23" value="Discord G1" style="whiteSpace=wrap;html=1;" vertex="1" parent="1">
          <mxGeometry x="249" y="-188" width="120" height="60" as="geometry" />
        </mxCell>
      </root>
    </mxGraphModel>
  </diagram>
  <diagram id="z4XVn_QT4RcK2-JWL-ce" name="Page-3">
    <mxGraphModel dx="1674" dy="848" grid="0" gridSize="10" guides="1" tooltips="1" connect="1" arrows="1" fold="1" page="0" pageScale="1" pageWidth="827" pageHeight="1169" math="0" shadow="0">
      <root>
        <mxCell id="0" />
        <mxCell id="1" parent="0" />
        <mxCell id="lls05_XridHwpr9JxLUJ-4" value="" style="edgeStyle=none;curved=1;rounded=0;orthogonalLoop=1;jettySize=auto;html=1;fontSize=12;startSize=8;endSize=8;entryX=0.5;entryY=0;entryDx=0;entryDy=0;" edge="1" parent="1" source="lls05_XridHwpr9JxLUJ-1" target="lls05_XridHwpr9JxLUJ-6">
          <mxGeometry relative="1" as="geometry">
            <mxPoint x="-173" y="98" as="targetPoint" />
          </mxGeometry>
        </mxCell>
        <mxCell id="lls05_XridHwpr9JxLUJ-5" value="" style="edgeStyle=none;curved=1;rounded=0;orthogonalLoop=1;jettySize=auto;html=1;fontSize=12;startSize=8;endSize=8;" edge="1" parent="1" source="lls05_XridHwpr9JxLUJ-1" target="lls05_XridHwpr9JxLUJ-2">
          <mxGeometry relative="1" as="geometry" />
        </mxCell>
        <mxCell id="lls05_XridHwpr9JxLUJ-1" value="Scrapper" style="rounded=1;whiteSpace=wrap;html=1;" vertex="1" parent="1">
          <mxGeometry x="-231" y="-31" width="120" height="60" as="geometry" />
        </mxCell>
        <mxCell id="lls05_XridHwpr9JxLUJ-2" value="csv" style="rounded=1;whiteSpace=wrap;html=1;" vertex="1" parent="1">
          <mxGeometry x="-76" y="-28" width="120" height="60" as="geometry" />
        </mxCell>
        <mxCell id="lls05_XridHwpr9JxLUJ-19" value="" style="edgeStyle=none;curved=1;rounded=0;orthogonalLoop=1;jettySize=auto;html=1;fontSize=12;startSize=8;endSize=8;" edge="1" parent="1" source="lls05_XridHwpr9JxLUJ-3" target="lls05_XridHwpr9JxLUJ-18">
          <mxGeometry relative="1" as="geometry" />
        </mxCell>
        <mxCell id="lls05_XridHwpr9JxLUJ-3" value="jsonify" style="whiteSpace=wrap;html=1;rounded=1;" vertex="1" parent="1">
          <mxGeometry x="-233" y="182" width="120" height="60" as="geometry" />
        </mxCell>
        <mxCell id="lls05_XridHwpr9JxLUJ-9" value="" style="edgeStyle=none;curved=1;rounded=0;orthogonalLoop=1;jettySize=auto;html=1;fontSize=12;startSize=8;endSize=8;" edge="1" parent="1" source="lls05_XridHwpr9JxLUJ-6" target="lls05_XridHwpr9JxLUJ-3">
          <mxGeometry relative="1" as="geometry" />
        </mxCell>
        <mxCell id="lls05_XridHwpr9JxLUJ-6" value="" style="ellipse;whiteSpace=wrap;html=1;rounded=1;" vertex="1" parent="1">
          <mxGeometry x="-191" y="111" width="36" height="38" as="geometry" />
        </mxCell>
        <mxCell id="lls05_XridHwpr9JxLUJ-8" value="" style="endArrow=classic;html=1;rounded=0;fontSize=12;startSize=8;endSize=8;exitX=0.5;exitY=1;exitDx=0;exitDy=0;entryX=1;entryY=0.5;entryDx=0;entryDy=0;" edge="1" parent="1" source="lls05_XridHwpr9JxLUJ-2" target="lls05_XridHwpr9JxLUJ-6">
          <mxGeometry width="50" height="50" relative="1" as="geometry">
            <mxPoint x="175" y="190" as="sourcePoint" />
            <mxPoint x="-153" y="120" as="targetPoint" />
            <Array as="points">
              <mxPoint x="-14" y="130" />
            </Array>
          </mxGeometry>
        </mxCell>
        <mxCell id="lls05_XridHwpr9JxLUJ-11" value="" style="edgeStyle=none;curved=1;rounded=0;orthogonalLoop=1;jettySize=auto;html=1;fontSize=12;startSize=8;endSize=8;" edge="1" parent="1" source="lls05_XridHwpr9JxLUJ-10" target="lls05_XridHwpr9JxLUJ-1">
          <mxGeometry relative="1" as="geometry" />
        </mxCell>
        <mxCell id="lls05_XridHwpr9JxLUJ-10" value="config" style="rounded=0;whiteSpace=wrap;html=1;" vertex="1" parent="1">
          <mxGeometry x="-500" y="-31" width="120" height="60" as="geometry" />
        </mxCell>
        <mxCell id="lls05_XridHwpr9JxLUJ-12" value="Actor" style="shape=umlActor;verticalLabelPosition=bottom;verticalAlign=top;html=1;outlineConnect=0;" vertex="1" parent="1">
          <mxGeometry x="-642" y="-77" width="30" height="60" as="geometry" />
        </mxCell>
        <mxCell id="lls05_XridHwpr9JxLUJ-13" value="Actor" style="shape=umlActor;verticalLabelPosition=bottom;verticalAlign=top;html=1;outlineConnect=0;" vertex="1" parent="1">
          <mxGeometry x="-632" y="-67" width="30" height="60" as="geometry" />
        </mxCell>
        <mxCell id="lls05_XridHwpr9JxLUJ-14" value="Actor" style="shape=umlActor;verticalLabelPosition=bottom;verticalAlign=top;html=1;outlineConnect=0;" vertex="1" parent="1">
          <mxGeometry x="-622" y="-57" width="30" height="60" as="geometry" />
        </mxCell>
        <mxCell id="lls05_XridHwpr9JxLUJ-16" value="" style="edgeStyle=none;curved=1;rounded=0;orthogonalLoop=1;jettySize=auto;html=1;fontSize=12;startSize=8;endSize=8;entryX=0;entryY=0.25;entryDx=0;entryDy=0;" edge="1" parent="1" source="lls05_XridHwpr9JxLUJ-15" target="lls05_XridHwpr9JxLUJ-17">
          <mxGeometry relative="1" as="geometry" />
        </mxCell>
        <mxCell id="lls05_XridHwpr9JxLUJ-15" value="Actor" style="shape=umlActor;verticalLabelPosition=bottom;verticalAlign=top;html=1;outlineConnect=0;" vertex="1" parent="1">
          <mxGeometry x="-612" y="-47" width="30" height="60" as="geometry" />
        </mxCell>
        <mxCell id="lls05_XridHwpr9JxLUJ-17" value="config" style="shape=process;whiteSpace=wrap;html=1;backgroundOutline=1;" vertex="1" parent="1">
          <mxGeometry x="-502" y="-31" width="120" height="60" as="geometry" />
        </mxCell>
        <mxCell id="lls05_XridHwpr9JxLUJ-18" value="Discord" style="whiteSpace=wrap;html=1;rounded=1;" vertex="1" parent="1">
          <mxGeometry x="-473" y="182" width="120" height="60" as="geometry" />
        </mxCell>
      </root>
    </mxGraphModel>
  </diagram>
</mxfile>
